Title                            : Final Destination 5
Year                             : 2011
Genre                            : Horror | Thriller
iMDB URL                         : http://www.imdb.com/title/tt1622979/

Complete name                    : Final.Destination.5.2011.BRRIP.720P.H264-ZEKTORM.mp4
Format                           : MPEG-4
Format profile                   : Base Media
Codec ID                         : isom
File size                        : 3.01 GiB
Duration                         : 1h 31mn
Overall bit rate                 : 4697 Kbps
Subtitles                        : English (Format: srt)

Video
ID                               : 1
Format                           : AVC
Format/Info                      : Advanced Video Codec
Format profile                   : High@L4.1
Format settings, CABAC           : Yes
Format settings, ReFrames        : 5 frames
Codec ID                         : avc1
Codec ID/Info                    : Advanced Video Coding
Duration                         : 1h 31mn
Bit rate mode                    : Variable
Bit rate                         : 4257 Kbps
Width                            : 1280 pixels
Height                           : 528 pixels
Display aspect ratio             : 2.424
Frame rate mode                  : Constant
Frame rate                       : 23.976 fps
Resolution                       : 24 bits
Colorimetry                      : 4:2:0
Scan type                        : Progressive
Bits/(Pixel*Frame)               : 0.263
Stream size                      : 2.73 GiB (91%)
Title                            : Video
Writing library                  : x264

Audio
ID                               : 2
Format                           : AAC
Format/Info                      : Advanced Audio Codec
Format version                   : Version 4
Format profile                   : LC
Format settings, SBR             : No
Codec ID                         : 40
Duration                         : 1h 31mn
Bit rate mode                    : Variable
Bit rate                         : 437 Kbps
Maximum bit rate                 : 529 Kbps
Channel(s)                       : 6 channels
Channel positions                : Front: L C R, Rear: L R, LFE
Sampling rate                    : 48.0 KHz
Resolution                       : 16 bits
Stream size                      : 287 MiB (9%)
Language                         : English


Screenshots:

[img]http://img859.imageshack.us/img859/9186/snapfd1.png[/img]

[img]http://img855.imageshack.us/img855/3664/snapfd2.png[/img]

[img]http://img542.imageshack.us/img542/8673/snapfd3.png[/img]
